<svg width="1928" height="1088" viewBox="0 0 1928 1088" fill="none" xmlns="http://www.w3.org/2000/svg">
<g clip-path="url(#clip0_7_133)" filter="url(#filter0_d_7_133)">
<rect width="1920" height="1080" transform="translate(4)" fill="white"/>
<path d="M983.25 150L938 228L983.25 306L1028.5 228L983.25 150Z" fill="#44403C"/>
<path d="M1073.75 306L1119 228H1028.5L983.25 306H1073.75Z" fill="#EF4444"/>
<path d="M1073.75 150H983.25L1028.5 228H1119L1073.75 150Z" fill="#67E8F9"/>
<path d="M1522.25 150L1477 228L1522.25 306L1567.5 228L1522.25 150Z" fill="#44403C"/>
<path d="M1612.75 306L1658 228H1567.5L1522.25 306H1612.75Z" fill="#EF4444"/>
<path d="M1612.75 150H1522.25L1567.5 228H1658L1612.75 150Z" fill="#67E8F9"/>
<path d="M1792.25 150L1747 228L1792.25 306L1837.5 228L1792.25 150Z" fill="#44403C"/>
<path d="M1882.75 306L1928 228H1837.5L1792.25 306H1882.75Z" fill="#EF4444"/>
<path d="M1882.75 150H1792.25L1837.5 228H1928L1882.75 150Z" fill="#67E8F9"/>
<path d="M1253.25 150L1208 228L1253.25 306L1298.5 228L1253.25 150Z" fill="#44403C"/>
<path d="M1343.75 306L1389 228H1298.5L1253.25 306H1343.75Z" fill="#EF4444"/>
<path d="M1343.75 150H1253.25L1298.5 228H1389L1343.75 150Z" fill="#67E8F9"/>
<path d="M1118.87 384.126L1073.79 306.042L983.624 306.043L1028.7 384.128L1118.87 384.126Z" fill="#44403C"/>
<path d="M938.541 384.129L983.622 462.213L1028.7 384.128L983.624 306.043L938.541 384.129Z" fill="#EF4444"/>
<path d="M1073.79 462.212L1118.87 384.126L1028.7 384.128L983.622 462.213L1073.79 462.212Z" fill="#67E8F9"/>
<path d="M1657.87 384.126L1612.79 306.042L1522.62 306.043L1567.7 384.128L1657.87 384.126Z" fill="#44403C"/>
<path d="M1477.54 384.129L1522.62 462.213L1567.7 384.128L1522.62 306.043L1477.54 384.129Z" fill="#EF4444"/>
<path d="M1612.79 462.212L1657.87 384.126L1567.7 384.128L1522.62 462.213L1612.79 462.212Z" fill="#67E8F9"/>
<path d="M1792.87 618.126L1747.79 540.042L1657.62 540.043L1702.7 618.128L1792.87 618.126Z" fill="#44403C"/>
<path d="M1612.54 618.129L1657.62 696.213L1702.7 618.128L1657.62 540.043L1612.54 618.129Z" fill="#EF4444"/>
<path d="M1747.79 696.212L1792.87 618.126L1702.7 618.128L1657.62 696.213L1747.79 696.212Z" fill="#67E8F9"/>
<path d="M1926.87 384.126L1881.79 306.042L1791.62 306.043L1836.7 384.128L1926.87 384.126Z" fill="#44403C"/>
<path d="M1746.54 384.129L1791.62 462.213L1836.7 384.128L1791.62 306.043L1746.54 384.129Z" fill="#EF4444"/>
<path d="M1881.79 462.212L1926.87 384.126L1836.7 384.128L1791.62 462.213L1881.79 462.212Z" fill="#67E8F9"/>
<path d="M1388.87 384.126L1343.79 306.042L1253.62 306.043L1298.7 384.128L1388.87 384.126Z" fill="#44403C"/>
<path d="M1208.54 384.129L1253.62 462.213L1298.7 384.128L1253.62 306.043L1208.54 384.129Z" fill="#EF4444"/>
<path d="M1343.79 462.212L1388.87 384.126L1298.7 384.128L1253.62 462.213L1343.79 462.212Z" fill="#67E8F9"/>
<path d="M1253.87 150.126L1208.79 72.0418L1118.62 72.0429L1163.7 150.128L1253.87 150.126Z" fill="#44403C"/>
<path d="M1073.54 150.129L1118.62 228.213L1163.7 150.128L1118.62 72.0429L1073.54 150.129Z" fill="#EF4444"/>
<path d="M1208.79 228.212L1253.87 150.126L1163.7 150.128L1118.62 228.213L1208.79 228.212Z" fill="#67E8F9"/>
<path d="M1523.87 150.126L1478.79 72.0418L1388.62 72.0429L1433.7 150.128L1523.87 150.126Z" fill="#44403C"/>
<path d="M1343.54 150.129L1388.62 228.213L1433.7 150.128L1388.62 72.0429L1343.54 150.129Z" fill="#EF4444"/>
<path d="M1478.79 228.212L1523.87 150.126L1433.7 150.128L1388.62 228.213L1478.79 228.212Z" fill="#67E8F9"/>
<path d="M1792.87 150.126L1747.79 72.0418L1657.62 72.0429L1702.7 150.128L1792.87 150.126Z" fill="#44403C"/>
<path d="M1612.54 150.129L1657.62 228.213L1702.7 150.128L1657.62 72.0429L1612.54 150.129Z" fill="#EF4444"/>
<path d="M1747.79 228.212L1792.87 150.126L1702.7 150.128L1657.62 228.213L1747.79 228.212Z" fill="#67E8F9"/>
<path d="M983.624 150.212L1073.79 150.213L1118.87 72.1287L1028.7 72.1275L983.624 150.212Z" fill="#44403C"/>
<path d="M1073.79 -5.95712L983.622 -5.95826L1028.7 72.1275L1118.87 72.1287L1073.79 -5.95712Z" fill="#EF4444"/>
<path d="M938.541 72.1264L983.624 150.212L1028.7 72.1275L983.622 -5.95826L938.541 72.1264Z" fill="#67E8F9"/>
<path d="M1523.62 150.212L1613.79 150.213L1658.87 72.1287L1568.7 72.1275L1523.62 150.212Z" fill="#44403C"/>
<path d="M1613.79 -5.95712L1523.62 -5.95826L1568.7 72.1275L1658.87 72.1287L1613.79 -5.95712Z" fill="#EF4444"/>
<path d="M1478.54 72.1264L1523.62 150.212L1568.7 72.1275L1523.62 -5.95826L1478.54 72.1264Z" fill="#67E8F9"/>
<path d="M1792.62 150.212L1882.79 150.213L1927.87 72.1287L1837.7 72.1275L1792.62 150.212Z" fill="#44403C"/>
<path d="M1882.79 -5.95712L1792.62 -5.95826L1837.7 72.1275L1927.87 72.1287L1882.79 -5.95712Z" fill="#EF4444"/>
<path d="M1747.54 72.1264L1792.62 150.212L1837.7 72.1275L1792.62 -5.95826L1747.54 72.1264Z" fill="#67E8F9"/>
<path d="M1118.62 384.212L1208.79 384.213L1253.87 306.129L1163.7 306.128L1118.62 384.212Z" fill="#44403C"/>
<path d="M1208.79 228.043L1118.62 228.042L1163.7 306.128L1253.87 306.129L1208.79 228.043Z" fill="#EF4444"/>
<path d="M1073.54 306.126L1118.62 384.212L1163.7 306.128L1118.62 228.042L1073.54 306.126Z" fill="#67E8F9"/>
<path d="M1387.62 384.212L1477.79 384.213L1522.87 306.129L1432.7 306.128L1387.62 384.212Z" fill="#44403C"/>
<path d="M1477.79 228.043L1387.62 228.042L1432.7 306.128L1522.87 306.129L1477.79 228.043Z" fill="#EF4444"/>
<path d="M1342.54 306.126L1387.62 384.212L1432.7 306.128L1387.62 228.042L1342.54 306.126Z" fill="#67E8F9"/>
<path d="M1657.62 384.212L1747.79 384.213L1792.87 306.129L1702.7 306.128L1657.62 384.212Z" fill="#44403C"/>
<path d="M1747.79 228.043L1657.62 228.042L1702.7 306.128L1792.87 306.129L1747.79 228.043Z" fill="#EF4444"/>
<path d="M1612.54 306.126L1657.62 384.212L1702.7 306.128L1657.62 228.042L1612.54 306.126Z" fill="#67E8F9"/>
<path d="M1253.62 150.212L1343.79 150.213L1388.87 72.1287L1298.7 72.1276L1253.62 150.212Z" fill="#44403C"/>
<path d="M1343.79 -5.9571L1253.62 -5.95824L1298.7 72.1276L1388.87 72.1287L1343.79 -5.9571Z" fill="#EF4444"/>
<path d="M1208.54 72.1264L1253.62 150.212L1298.7 72.1276L1253.62 -5.95824L1208.54 72.1264Z" fill="#67E8F9"/>
<path d="M982.965 618.159L1073.13 618.16L1118.21 540.076L1028.05 540.074L982.965 618.159Z" fill="#44403C"/>
<path d="M1073.13 461.99L982.963 461.989L1028.05 540.074L1118.21 540.076L1073.13 461.99Z" fill="#EF4444"/>
<path d="M937.883 540.073L982.965 618.159L1028.05 540.074L982.963 461.989L937.883 540.073Z" fill="#67E8F9"/>
<path d="M1522.62 618.212L1612.79 618.213L1657.87 540.129L1567.7 540.128L1522.62 618.212Z" fill="#44403C"/>
<path d="M1612.79 462.043L1522.62 462.042L1567.7 540.128L1657.87 540.129L1612.79 462.043Z" fill="#EF4444"/>
<path d="M1477.54 540.126L1522.62 618.212L1567.7 540.128L1522.62 462.042L1477.54 540.126Z" fill="#67E8F9"/>
<path d="M1657.62 852.212L1747.79 852.213L1792.87 774.129L1702.7 774.128L1657.62 852.212Z" fill="#44403C"/>
<path d="M1747.79 696.043L1657.62 696.042L1702.7 774.128L1792.87 774.129L1747.79 696.043Z" fill="#EF4444"/>
<path d="M1612.54 774.126L1657.62 852.212L1702.7 774.128L1657.62 696.042L1612.54 774.126Z" fill="#67E8F9"/>
<path d="M1792.62 1086.21L1882.79 1086.21L1927.87 1008.13L1837.7 1008.13L1792.62 1086.21Z" fill="#44403C"/>
<path d="M1882.79 930.043L1792.62 930.042L1837.7 1008.13L1927.87 1008.13L1882.79 930.043Z" fill="#EF4444"/>
<path d="M1747.54 1008.13L1792.62 1086.21L1837.7 1008.13L1792.62 930.042L1747.54 1008.13Z" fill="#67E8F9"/>
<path d="M1791.62 618.212L1881.79 618.213L1926.87 540.129L1836.7 540.128L1791.62 618.212Z" fill="#44403C"/>
<path d="M1881.79 462.043L1791.62 462.042L1836.7 540.128L1926.87 540.129L1881.79 462.043Z" fill="#EF4444"/>
<path d="M1746.54 540.126L1791.62 618.212L1836.7 540.128L1791.62 462.042L1746.54 540.126Z" fill="#67E8F9"/>
<path d="M1252.62 618.212L1342.79 618.213L1387.87 540.129L1297.7 540.128L1252.62 618.212Z" fill="#44403C"/>
<path d="M1342.79 462.043L1252.62 462.042L1297.7 540.128L1387.87 540.129L1342.79 462.043Z" fill="#EF4444"/>
<path d="M1207.54 540.126L1252.62 618.212L1297.7 540.128L1252.62 462.042L1207.54 540.126Z" fill="#67E8F9"/>
<path d="M1117.81 -86.8736L1072.73 -164.958L982.566 -164.957L1027.65 -86.8724L1117.81 -86.8736Z" fill="#44403C"/>
<path d="M937.484 -86.8713L982.564 -8.78663L1027.65 -86.8724L982.566 -164.957L937.484 -86.8713Z" fill="#EF4444"/>
<path d="M1072.73 -8.78777L1117.81 -86.8736L1027.65 -86.8724L982.564 -8.78663L1072.73 -8.78777Z" fill="#67E8F9"/>
<path d="M983.25 618L938 696L983.25 774L1028.5 696L983.25 618Z" fill="#44403C"/>
<path d="M1073.75 774L1119 696H1028.5L983.25 774H1073.75Z" fill="#EF4444"/>
<path d="M1073.75 618H983.25L1028.5 696H1119L1073.75 618Z" fill="#67E8F9"/>
<path d="M1522.25 618L1477 696L1522.25 774L1567.5 696L1522.25 618Z" fill="#44403C"/>
<path d="M1612.75 774L1658 696H1567.5L1522.25 774H1612.75Z" fill="#EF4444"/>
<path d="M1612.75 618H1522.25L1567.5 696H1658L1612.75 618Z" fill="#67E8F9"/>
<path d="M1657.25 852L1612 930L1657.25 1008L1702.5 930L1657.25 852Z" fill="#44403C"/>
<path d="M1747.75 1008L1793 930H1702.5L1657.25 1008H1747.75Z" fill="#EF4444"/>
<path d="M1747.75 852H1657.25L1702.5 930H1793L1747.75 852Z" fill="#67E8F9"/>
<path d="M1792.25 618L1747 696L1792.25 774L1837.5 696L1792.25 618Z" fill="#44403C"/>
<path d="M1882.75 774L1928 696H1837.5L1792.25 774H1882.75Z" fill="#EF4444"/>
<path d="M1882.75 618H1792.25L1837.5 696H1928L1882.75 618Z" fill="#67E8F9"/>
<path d="M1252.25 618L1207 696L1252.25 774L1297.5 696L1252.25 618Z" fill="#44403C"/>
<path d="M1342.75 774L1388 696H1297.5L1252.25 774H1342.75Z" fill="#EF4444"/>
<path d="M1342.75 618H1252.25L1297.5 696H1388L1342.75 618Z" fill="#67E8F9"/>
<path d="M1118.25 851L1073 929L1118.25 1007L1163.5 929L1118.25 851Z" fill="#44403C"/>
<path d="M1208.75 1007L1254 929H1163.5L1118.25 1007H1208.75Z" fill="#EF4444"/>
<path d="M1208.75 851H1118.25L1163.5 929H1254L1208.75 851Z" fill="#67E8F9"/>
<path d="M1387.25 852L1342 930L1387.25 1008L1432.5 930L1387.25 852Z" fill="#44403C"/>
<path d="M1477.75 1008L1523 930H1432.5L1387.25 1008H1477.75Z" fill="#EF4444"/>
<path d="M1477.75 852H1387.25L1432.5 930H1523L1477.75 852Z" fill="#67E8F9"/>
<path d="M1118.25 384L1073 462L1118.25 540L1163.5 462L1118.25 384Z" fill="#44403C"/>
<path d="M1208.75 540L1254 462H1163.5L1118.25 540H1208.75Z" fill="#EF4444"/>
<path d="M1208.75 384H1118.25L1163.5 462H1254L1208.75 384Z" fill="#67E8F9"/>
<path d="M1387.25 384L1342 462L1387.25 540L1432.5 462L1387.25 384Z" fill="#44403C"/>
<path d="M1477.75 540L1523 462H1432.5L1387.25 540H1477.75Z" fill="#EF4444"/>
<path d="M1477.75 384H1387.25L1432.5 462H1523L1477.75 384Z" fill="#67E8F9"/>
<path d="M1657.25 384L1612 462L1657.25 540L1702.5 462L1657.25 384Z" fill="#44403C"/>
<path d="M1747.75 540L1793 462H1702.5L1657.25 540H1747.75Z" fill="#EF4444"/>
<path d="M1747.75 384H1657.25L1702.5 462H1793L1747.75 384Z" fill="#67E8F9"/>
<path d="M1118.87 851.126L1073.79 773.042L983.624 773.043L1028.7 851.128L1118.87 851.126Z" fill="#44403C"/>
<path d="M938.541 851.129L983.622 929.213L1028.7 851.128L983.624 773.043L938.541 851.129Z" fill="#EF4444"/>
<path d="M1073.79 929.212L1118.87 851.126L1028.7 851.128L983.622 929.213L1073.79 929.212Z" fill="#67E8F9"/>
<path d="M1657.87 852.126L1612.79 774.042L1522.62 774.043L1567.7 852.128L1657.87 852.126Z" fill="#44403C"/>
<path d="M1477.54 852.129L1522.62 930.213L1567.7 852.128L1522.62 774.043L1477.54 852.129Z" fill="#EF4444"/>
<path d="M1612.79 930.212L1657.87 852.126L1567.7 852.128L1522.62 930.213L1612.79 930.212Z" fill="#67E8F9"/>
<path d="M1927.87 852.126L1882.79 774.042L1792.62 774.043L1837.7 852.128L1927.87 852.126Z" fill="#44403C"/>
<path d="M1747.54 852.129L1792.62 930.213L1837.7 852.128L1792.62 774.043L1747.54 852.129Z" fill="#EF4444"/>
<path d="M1882.79 930.212L1927.87 852.126L1837.7 852.128L1792.62 930.213L1882.79 930.212Z" fill="#67E8F9"/>
<path d="M1388.87 852.126L1343.79 774.042L1253.62 774.043L1298.7 852.128L1388.87 852.126Z" fill="#44403C"/>
<path d="M1208.54 852.129L1253.62 930.213L1298.7 852.128L1253.62 774.043L1208.54 852.129Z" fill="#EF4444"/>
<path d="M1343.79 930.212L1388.87 852.126L1298.7 852.128L1253.62 930.213L1343.79 930.212Z" fill="#67E8F9"/>
<path d="M1252.87 618.126L1207.79 540.042L1117.62 540.043L1162.7 618.128L1252.87 618.126Z" fill="#44403C"/>
<path d="M1072.54 618.129L1117.62 696.213L1162.7 618.128L1117.62 540.043L1072.54 618.129Z" fill="#EF4444"/>
<path d="M1207.79 696.212L1252.87 618.126L1162.7 618.128L1117.62 696.213L1207.79 696.212Z" fill="#67E8F9"/>
<path d="M1522.87 618.126L1477.79 540.042L1387.62 540.043L1432.7 618.128L1522.87 618.126Z" fill="#44403C"/>
<path d="M1342.54 618.129L1387.62 696.213L1432.7 618.128L1387.62 540.043L1342.54 618.129Z" fill="#EF4444"/>
<path d="M1477.79 696.212L1522.87 618.126L1432.7 618.128L1387.62 696.213L1477.79 696.212Z" fill="#67E8F9"/>
<path d="M30.3194 1132.39L-14.7615 1054.3L-104.925 1054.3L-59.8443 1132.39L30.3194 1132.39Z" fill="#44403C"/>
<path d="M-150.008 1132.39L-104.927 1210.47L-59.8443 1132.39L-104.925 1054.3L-150.008 1132.39Z" fill="#EF4444"/>
<path d="M-14.7635 1210.47L30.3194 1132.39L-59.8443 1132.39L-104.927 1210.47L-14.7635 1210.47Z" fill="#67E8F9"/>
<path d="M983.624 1085.21L1073.79 1085.21L1118.87 1007.13L1028.7 1007.13L983.624 1085.21Z" fill="#44403C"/>
<path d="M1073.79 929.043L983.622 929.042L1028.7 1007.13L1118.87 1007.13L1073.79 929.043Z" fill="#EF4444"/>
<path d="M938.541 1007.13L983.624 1085.21L1028.7 1007.13L983.622 929.042L938.541 1007.13Z" fill="#67E8F9"/>
<path d="M1522.62 1086.21L1612.79 1086.21L1657.87 1008.13L1567.7 1008.13L1522.62 1086.21Z" fill="#44403C"/>
<path d="M1612.79 930.043L1522.62 930.042L1567.7 1008.13L1657.87 1008.13L1612.79 930.043Z" fill="#EF4444"/>
<path d="M1477.54 1008.13L1522.62 1086.21L1567.7 1008.13L1522.62 930.042L1477.54 1008.13Z" fill="#67E8F9"/>
<path d="M1252.62 1086.21L1342.79 1086.21L1387.87 1008.13L1297.7 1008.13L1252.62 1086.21Z" fill="#44403C"/>
<path d="M1342.79 930.043L1252.62 930.042L1297.7 1008.13L1387.87 1008.13L1342.79 930.043Z" fill="#EF4444"/>
<path d="M1207.54 1008.13L1252.62 1086.21L1297.7 1008.13L1252.62 930.042L1207.54 1008.13Z" fill="#67E8F9"/>
<path d="M1118.62 852.212L1208.79 852.213L1253.87 774.129L1163.7 774.128L1118.62 852.212Z" fill="#44403C"/>
<path d="M1208.79 696.043L1118.62 696.042L1163.7 774.128L1253.87 774.129L1208.79 696.043Z" fill="#EF4444"/>
<path d="M1073.54 774.126L1118.62 852.212L1163.7 774.128L1118.62 696.042L1073.54 774.126Z" fill="#67E8F9"/>
<path d="M1387.62 852.212L1477.79 852.213L1522.87 774.129L1432.7 774.128L1387.62 852.212Z" fill="#44403C"/>
<path d="M1477.79 696.043L1387.62 696.042L1432.7 774.128L1522.87 774.129L1477.79 696.043Z" fill="#EF4444"/>
<path d="M1342.54 774.126L1387.62 852.212L1432.7 774.128L1387.62 696.042L1342.54 774.126Z" fill="#67E8F9"/>
<path d="M1118.25 -84L1073 -6L1118.25 72L1163.5 -6L1118.25 -84Z" fill="#44403C"/>
<path d="M1208.75 72L1254 -6L1163.5 -6L1118.25 72L1208.75 72Z" fill="#EF4444"/>
<path d="M1208.75 -84H1118.25L1163.5 -6L1254 -6L1208.75 -84Z" fill="#67E8F9"/>
<path d="M2061.87 1085.13L2016.79 1007.04L1926.62 1007.04L1971.7 1085.13L2061.87 1085.13Z" fill="#44403C"/>
<path d="M1881.54 1085.13L1926.62 1163.21L1971.7 1085.13L1926.62 1007.04L1881.54 1085.13Z" fill="#EF4444"/>
<path d="M2016.79 1163.21L2061.87 1085.13L1971.7 1085.13L1926.62 1163.21L2016.79 1163.21Z" fill="#67E8F9"/>
<path d="M1926.25 852L1881 930L1926.25 1008L1971.5 930L1926.25 852Z" fill="#44403C"/>
<path d="M2016.75 1008L2062 930H1971.5L1926.25 1008H2016.75Z" fill="#EF4444"/>
<path d="M2016.75 852H1926.25L1971.5 930H2062L2016.75 852Z" fill="#67E8F9"/>
<path d="M1926.62 852.212L2016.79 852.213L2061.87 774.129L1971.7 774.128L1926.62 852.212Z" fill="#44403C"/>
<path d="M2016.79 696.043L1926.62 696.042L1971.7 774.128L2061.87 774.129L2016.79 696.043Z" fill="#EF4444"/>
<path d="M1881.54 774.126L1926.62 852.212L1971.7 774.128L1926.62 696.042L1881.54 774.126Z" fill="#67E8F9"/>
<path d="M2061.87 618.126L2016.79 540.042L1926.62 540.043L1971.7 618.128L2061.87 618.126Z" fill="#44403C"/>
<path d="M1881.54 618.129L1926.62 696.213L1971.7 618.128L1926.62 540.043L1881.54 618.129Z" fill="#EF4444"/>
<path d="M2016.79 696.212L2061.87 618.126L1971.7 618.128L1926.62 696.213L2016.79 696.212Z" fill="#67E8F9"/>
<path d="M1792.87 1086.13L1747.79 1008.04L1657.62 1008.04L1702.7 1086.13L1792.87 1086.13Z" fill="#44403C"/>
<path d="M1612.54 1086.13L1657.62 1164.21L1702.7 1086.13L1657.62 1008.04L1612.54 1086.13Z" fill="#EF4444"/>
<path d="M1747.79 1164.21L1792.87 1086.13L1702.7 1086.13L1657.62 1164.21L1747.79 1164.21Z" fill="#67E8F9"/>
<path d="M1926.25 384L1881 462L1926.25 540L1971.5 462L1926.25 384Z" fill="#44403C"/>
<path d="M2016.75 540L2062 462H1971.5L1926.25 540H2016.75Z" fill="#EF4444"/>
<path d="M2016.75 384H1926.25L1971.5 462H2062L2016.75 384Z" fill="#67E8F9"/>
<path d="M1926.62 384.212L2016.79 384.213L2061.87 306.129L1971.7 306.128L1926.62 384.212Z" fill="#44403C"/>
<path d="M2016.79 228.043L1926.62 228.042L1971.7 306.128L2061.87 306.129L2016.79 228.043Z" fill="#EF4444"/>
<path d="M1881.54 306.126L1926.62 384.212L1971.7 306.128L1926.62 228.042L1881.54 306.126Z" fill="#67E8F9"/>
<path d="M2061.87 150.126L2016.79 72.0418L1926.62 72.0429L1971.7 150.128L2061.87 150.126Z" fill="#44403C"/>
<path d="M1881.54 150.129L1926.62 228.213L1971.7 150.128L1926.62 72.0429L1881.54 150.129Z" fill="#EF4444"/>
<path d="M2016.79 228.212L2061.87 150.126L1971.7 150.128L1926.62 228.213L2016.79 228.212Z" fill="#67E8F9"/>
<path d="M1253.87 1085.13L1208.79 1007.04L1118.62 1007.04L1163.7 1085.13L1253.87 1085.13Z" fill="#44403C"/>
<path d="M1073.54 1085.13L1118.62 1163.21L1163.7 1085.13L1118.62 1007.04L1073.54 1085.13Z" fill="#EF4444"/>
<path d="M1208.79 1163.21L1253.87 1085.13L1163.7 1085.13L1118.62 1163.21L1208.79 1163.21Z" fill="#67E8F9"/>
<path d="M1522.87 1085.13L1477.79 1007.04L1387.62 1007.04L1432.7 1085.13L1522.87 1085.13Z" fill="#44403C"/>
<path d="M1342.54 1085.13L1387.62 1163.21L1432.7 1085.13L1387.62 1007.04L1342.54 1085.13Z" fill="#EF4444"/>
<path d="M1477.79 1163.21L1522.87 1085.13L1432.7 1085.13L1387.62 1163.21L1477.79 1163.21Z" fill="#67E8F9"/>
<path d="M1388.25 -83L1343 -5L1388.25 73L1433.5 -5L1388.25 -83Z" fill="#44403C"/>
<path d="M1478.75 73L1524 -5L1433.5 -5L1388.25 73L1478.75 73Z" fill="#EF4444"/>
<path d="M1478.75 -83H1388.25L1433.5 -5L1524 -5L1478.75 -83Z" fill="#67E8F9"/>
<path d="M1658.25 -83L1613 -5L1658.25 73L1703.5 -5L1658.25 -83Z" fill="#44403C"/>
<path d="M1748.75 73L1794 -5L1703.5 -5L1658.25 73L1748.75 73Z" fill="#EF4444"/>
<path d="M1748.75 -83H1658.25L1703.5 -5L1794 -5L1748.75 -83Z" fill="#67E8F9"/>
<path d="M1926.25 -84L1881 -6L1926.25 72L1971.5 -6L1926.25 -84Z" fill="#44403C"/>
<path d="M2016.75 72L2062 -6L1971.5 -6L1926.25 72L2016.75 72Z" fill="#EF4444"/>
<path d="M2016.75 -84H1926.25L1971.5 -6L2062 -6L2016.75 -84Z" fill="#67E8F9"/>
</g>
<defs>
<filter id="filter0_d_7_133" x="0" y="0" width="1928" height="1088" filterUnits="userSpaceOnUse" color-interpolation-filters="sRGB">
<feFlood flood-opacity="0" result="BackgroundImageFix"/>
<feColorMatrix in="SourceAlpha" type="matrix" values="0 0 0 0 0 0 0 0 0 0 0 0 0 0 0 0 0 0 127 0" result="hardAlpha"/>
<feOffset dy="4"/>
<feGaussianBlur stdDeviation="2"/>
<feComposite in2="hardAlpha" operator="out"/>
<feColorMatrix type="matrix" values="0 0 0 0 0 0 0 0 0 0 0 0 0 0 0 0 0 0 0.25 0"/>
<feBlend mode="normal" in2="BackgroundImageFix" result="effect1_dropShadow_7_133"/>
<feBlend mode="normal" in="SourceGraphic" in2="effect1_dropShadow_7_133" result="shape"/>
</filter>
<clipPath id="clip0_7_133">
<rect width="1920" height="1080" fill="white" transform="translate(4)"/>
</clipPath>
</defs>
</svg>
